# xmcd
#
# Track frame offsets:
#	150
#	17915
#	39940
#	54210
#	71282
#	96195
#	111247
#	133612
#	153125
#	165592
#
# Disc length: 2528 seconds
#
# Revision: 0
# Processed by: cddbd v1.4PL0 Copyright (c) Steve Scherf et al.
# Submitted via: dBpowerAMP V4.0
#
DISCID=7209de0a
DTITLE=Bjørn Jens - Cappuccino
DYEAR=1994
DGENRE=country
TTITLE0=Den Første Som Går
TTITLE1=Midnatt Regn
TTITLE2=Den Typiske Typen
TTITLE3=Bare Vind
TTITLE4=Fed Up Med All Blues
TTITLE5=Gifte Damer
TTITLE6=Da Du Va Mi
TTITLE7=Panama
TTITLE8=Cappuccino
TTITLE9=Midnight Rain
EXTD=
EXTT0=
EXTT1=
EXTT2=
EXTT3=
EXTT4=
EXTT5=
EXTT6=
EXTT7=
EXTT8=
EXTT9=
PLAYORDER=
